<svg xmlns="http://www.w3.org/2000/svg" width="1600" height="900" viewBox="0 0 1600 900" role="img" aria-labelledby="title desc">
  <title id="title">Chromaj</title>
  <desc id="desc">Abstract placeholder image for the Chromaj creator platform.</desc>
  <defs>
    <linearGradient id="bg" x1="0" y1="0" x2="1" y2="1">
      <stop offset="0%" stop-color="#0f172a"/>
      <stop offset="100%" stop-color="#1d4ed8"/>
    </linearGradient>
    <linearGradient id="accent" x1="0" y1="0" x2="1" y2="1">
      <stop offset="0%" stop-color="#22c55e"/>
      <stop offset="100%" stop-color="#38bdf8"/>
    </linearGradient>
  </defs>
  <rect width="1600" height="900" fill="url(#bg)"/>
  <circle cx="240" cy="210" r="140" fill="#22c55e" opacity="0.14"/>
  <circle cx="1380" cy="220" r="170" fill="#38bdf8" opacity="0.14"/>
  <rect x="130" y="150" width="1340" height="600" rx="36" fill="#111827" stroke="#334155" stroke-width="4"/>
  <rect x="190" y="210" width="360" height="28" rx="14" fill="url(#accent)"/>
  <rect x="190" y="275" width="880" height="18" rx="9" fill="#e2e8f0" opacity="0.18"/>
  <rect x="190" y="315" width="720" height="18" rx="9" fill="#e2e8f0" opacity="0.14"/>
  <rect x="190" y="380" width="560" height="280" rx="24" fill="#0f172a" stroke="#334155" stroke-width="3"/>
  <rect x="800" y="380" width="610" height="60" rx="16" fill="#0f172a" stroke="#334155" stroke-width="3"/>
  <rect x="800" y="460" width="610" height="60" rx="16" fill="#0f172a" stroke="#334155" stroke-width="3"/>
  <rect x="800" y="540" width="610" height="60" rx="16" fill="#0f172a" stroke="#334155" stroke-width="3"/>
  <rect x="800" y="620" width="220" height="46" rx="23" fill="#22c55e"/>
  <text x="190" y="760" fill="#ffffff" font-family="Arial, Helvetica, sans-serif" font-size="54" font-weight="800">CHROMAJ</text>
  <text x="190" y="808" fill="#94a3b8" font-family="Arial, Helvetica, sans-serif" font-size="20">Express.js • Prisma • React • PostgreSQL</text>
</svg>
