<svg xmlns="http://www.w3.org/2000/svg" width="1600" height="900" viewBox="0 0 1600 900" role="img" aria-labelledby="title desc">
  <title id="title">HOOD</title>
  <desc id="desc">Abstract placeholder image for the HOOD streetwear e-commerce project.</desc>
  <defs>
    <linearGradient id="bg" x1="0" y1="0" x2="1" y2="1">
      <stop offset="0%" stop-color="#111827"/>
      <stop offset="100%" stop-color="#000000"/>
    </linearGradient>
    <linearGradient id="accent" x1="0" y1="0" x2="1" y2="1">
      <stop offset="0%" stop-color="#f97316"/>
      <stop offset="100%" stop-color="#ec4899"/>
    </linearGradient>
  </defs>
  <rect width="1600" height="900" fill="url(#bg)"/>
  <circle cx="250" cy="220" r="160" fill="#f97316" opacity="0.14"/>
  <circle cx="1340" cy="160" r="180" fill="#ec4899" opacity="0.14"/>
  <rect x="140" y="160" width="1320" height="580" rx="40" fill="#0f172a" stroke="#334155" stroke-width="4"/>
  <rect x="210" y="220" width="420" height="26" rx="13" fill="url(#accent)"/>
  <rect x="210" y="280" width="620" height="18" rx="9" fill="#e5e7eb" opacity="0.22"/>
  <rect x="210" y="320" width="520" height="18" rx="9" fill="#e5e7eb" opacity="0.14"/>
  <rect x="210" y="390" width="520" height="260" rx="26" fill="#111827" stroke="#334155" stroke-width="3"/>
  <rect x="800" y="390" width="560" height="68" rx="18" fill="#111827" stroke="#334155" stroke-width="3"/>
  <rect x="800" y="485" width="560" height="68" rx="18" fill="#111827" stroke="#334155" stroke-width="3"/>
  <rect x="800" y="580" width="560" height="68" rx="18" fill="#111827" stroke="#334155" stroke-width="3"/>
  <text x="210" y="760" fill="#ffffff" font-family="Arial, Helvetica, sans-serif" font-size="54" font-weight="800">HOOD</text>
  <text x="210" y="808" fill="#94a3b8" font-family="Arial, Helvetica, sans-serif" font-size="20">Laravel • Vue.js • TailwindCSS • MySQL</text>
</svg>
