<svg xmlns="http://www.w3.org/2000/svg" width="1600" height="900" viewBox="0 0 1600 900" role="img" aria-labelledby="title desc">
  <title id="title">PharmaManager</title>
  <desc id="desc">Abstract placeholder image for the PharmaManager pharmacy application.</desc>
  <defs>
    <linearGradient id="bg" x1="0" y1="0" x2="1" y2="1">
      <stop offset="0%" stop-color="#08111f"/>
      <stop offset="100%" stop-color="#14532d"/>
    </linearGradient>
    <linearGradient id="accent" x1="0" y1="0" x2="1" y2="1">
      <stop offset="0%" stop-color="#22c55e"/>
      <stop offset="100%" stop-color="#60a5fa"/>
    </linearGradient>
  </defs>
  <rect width="1600" height="900" fill="url(#bg)"/>
  <circle cx="260" cy="200" r="150" fill="#22c55e" opacity="0.15"/>
  <circle cx="1360" cy="190" r="170" fill="#60a5fa" opacity="0.12"/>
  <rect x="150" y="150" width="1300" height="600" rx="36" fill="#0f172a" stroke="#334155" stroke-width="4"/>
  <rect x="210" y="210" width="460" height="28" rx="14" fill="url(#accent)"/>
  <rect x="210" y="275" width="840" height="18" rx="9" fill="#e2e8f0" opacity="0.20"/>
  <rect x="210" y="315" width="680" height="18" rx="9" fill="#e2e8f0" opacity="0.14"/>
  <rect x="210" y="380" width="520" height="260" rx="24" fill="#111827" stroke="#334155" stroke-width="3"/>
  <rect x="800" y="380" width="610" height="60" rx="16" fill="#111827" stroke="#334155" stroke-width="3"/>
  <rect x="800" y="460" width="610" height="60" rx="16" fill="#111827" stroke="#334155" stroke-width="3"/>
  <rect x="800" y="540" width="610" height="60" rx="16" fill="#111827" stroke="#334155" stroke-width="3"/>
  <rect x="800" y="620" width="240" height="46" rx="23" fill="#22c55e"/>
  <text x="210" y="760" fill="#ffffff" font-family="Arial, Helvetica, sans-serif" font-size="54" font-weight="800">PHARMAMANAGER</text>
  <text x="210" y="808" fill="#94a3b8" font-family="Arial, Helvetica, sans-serif" font-size="20">Django • Python • SQLite • Bootstrap</text>
</svg>
