<svg xmlns="http://www.w3.org/2000/svg" width="1600" height="900" viewBox="0 0 1600 900" role="img" aria-labelledby="title desc">
  <title id="title">WordPress Business Site</title>
  <desc id="desc">Abstract portfolio-style placeholder image for a WordPress business website project.</desc>
  <defs>
    <linearGradient id="bg" x1="0" y1="0" x2="1" y2="1">
      <stop offset="0%" stop-color="#0f172a"/>
      <stop offset="55%" stop-color="#1e293b"/>
      <stop offset="100%" stop-color="#0b1020"/>
    </linearGradient>
    <linearGradient id="accent" x1="0" y1="0" x2="1" y2="1">
      <stop offset="0%" stop-color="#22c55e"/>
      <stop offset="50%" stop-color="#38bdf8"/>
      <stop offset="100%" stop-color="#f59e0b"/>
    </linearGradient>
  </defs>
  <rect width="1600" height="900" fill="url(#bg)"/>
  <circle cx="220" cy="180" r="120" fill="#22c55e" opacity="0.14"/>
  <circle cx="1380" cy="160" r="150" fill="#38bdf8" opacity="0.12"/>
  <circle cx="1320" cy="760" r="210" fill="#f59e0b" opacity="0.10"/>
  <rect x="140" y="140" width="1320" height="620" rx="36" fill="#111827" stroke="#334155" stroke-width="4"/>
  <rect x="190" y="190" width="420" height="30" rx="15" fill="url(#accent)" opacity="0.95"/>
  <rect x="190" y="245" width="900" height="18" rx="9" fill="#cbd5e1" opacity="0.25"/>
  <rect x="190" y="285" width="780" height="18" rx="9" fill="#cbd5e1" opacity="0.18"/>
  <rect x="190" y="355" width="520" height="250" rx="24" fill="#0f172a" stroke="#334155" stroke-width="3"/>
  <rect x="770" y="355" width="620" height="70" rx="18" fill="#0f172a" stroke="#334155" stroke-width="3"/>
  <rect x="770" y="450" width="620" height="70" rx="18" fill="#0f172a" stroke="#334155" stroke-width="3"/>
  <rect x="770" y="545" width="620" height="70" rx="18" fill="#0f172a" stroke="#334155" stroke-width="3"/>
  <rect x="770" y="640" width="260" height="48" rx="24" fill="#22c55e"/>
  <text x="190" y="690" fill="#e2e8f0" font-family="Arial, Helvetica, sans-serif" font-size="28" font-weight="700" letter-spacing="2">WORDPRESS BUSINESS SITE</text>
  <text x="190" y="735" fill="#94a3b8" font-family="Arial, Helvetica, sans-serif" font-size="18">Custom theme, Gutenberg, SEO, RGPD, WCAG</text>
  <text x="190" y="115" fill="#ffffff" font-family="Arial, Helvetica, sans-serif" font-size="54" font-weight="800">Mohamed Reda Chakir</text>
  <text x="190" y="160" fill="#94a3b8" font-family="Arial, Helvetica, sans-serif" font-size="22">Full Stack Web Developer</text>
</svg>
